ffmpeg started on 2026-01-06 at 11:57:12
Report written to "D:\Convert\FFMetrics\reports\ssim_report-6.txt"
Log level: 32
Command line:
ffmpeg -hide_banner -nostdin -r 24000/1001 -i "F:\\Convert\\files\\Nanatsu_no_Maken_ga_Shihai_suru_[02]_[AniLibria_TV]_[WEBRip_1080p]_HEVC(55).mkv" -r 24000/1001 -i "F:\\Convert\\files\\Nanatsu_no_Maken_ga_Shihai_suru_[02]_[AniLibria_TV]_[WEBRip_1080p].mkv" -lavfi "[0:v]settb=AVTB,setpts=PTS-STARTPTS,format=pix_fmts=yuv420p10le,fps=24000/1001,scale=1920:1080:flags=bicubic[main];[1:v]settb=AVTB,setpts=PTS-STARTPTS,format=pix_fmts=yuv420p,fps=24000/1001,scale=1920:1080:flags=bicubic[ref];[main][ref]ssim=eof_action=endall:stats_file='D\\:/Convert/FFMetrics/logs/ssim_logfile-6.txt'" -f null -
Input #0, matroska,webm, from 'F:\Convert\files\Nanatsu_no_Maken_ga_Shihai_suru_[02]_[AniLibria_TV]_[WEBRip_1080p]_HEVC(55).mkv':
  Metadata:
    ENCODER         : Lavf61.7.100
  Duration: 00:23:40.14, start: -0.021000, bitrate: 1195 kb/s
  Stream #0:0: Video: hevc (Main 10), yuv420p10le(tv, bt709, progressive), 1920x1080 [SAR 1:1 DAR 16:9], 23.98 fps, 23.98 tbr, 1k tbn (default)
      Metadata:
        title           : Original
        ENCODER         : Lavc61.19.100 libx265
        BPS             : 955895
        DURATION        : 00:23:40.043708333
        NUMBER_OF_FRAMES: 34047
        NUMBER_OF_BYTES : 169676616
        _STATISTICS_WRITING_APP: mkvpropedit v94.0 ('Initiate') 64-bit
        _STATISTICS_WRITING_DATE_UTC: 2026-01-05 16:11:10
        _STATISTICS_TAGS: BPS DURATION NUMBER_OF_FRAMES NUMBER_OF_BYTES
  Stream #0:1(rus): Audio: aac (LC), 48000 Hz, stereo, fltp (default)
      Metadata:
        title           : AniLibria.TV
        ENCODER         : Lavc61.19.100 aac
        BPS             : 194075
        DURATION        : 00:23:40.117000000
        NUMBER_OF_FRAMES: 66569
        NUMBER_OF_BYTES : 34451214
        _STATISTICS_WRITING_APP: mkvpropedit v94.0 ('Initiate') 64-bit
        _STATISTICS_WRITING_DATE_UTC: 2026-01-05 16:11:10
        _STATISTICS_TAGS: BPS DURATION NUMBER_OF_FRAMES NUMBER_OF_BYTES
  Stream #0:2(rus): Subtitle: ass (ssa) (default)
      Metadata:
        title           : Надписи
        BPS             : 340
        DURATION        : 00:22:14.570000000
        NUMBER_OF_FRAMES: 381
        NUMBER_OF_BYTES : 56799
        _STATISTICS_WRITING_APP: mkvpropedit v94.0 ('Initiate') 64-bit
        _STATISTICS_WRITING_DATE_UTC: 2026-01-05 16:11:10
        _STATISTICS_TAGS: BPS DURATION NUMBER_OF_FRAMES NUMBER_OF_BYTES
  Stream #0:3(rus): Subtitle: ass (ssa)
      Metadata:
        title           : Субтитры
        BPS             : 489
        DURATION        : 00:23:37.340000000
        NUMBER_OF_FRAMES: 749
        NUMBER_OF_BYTES : 86800
        _STATISTICS_WRITING_APP: mkvpropedit v94.0 ('Initiate') 64-bit
        _STATISTICS_WRITING_DATE_UTC: 2026-01-05 16:11:10
        _STATISTICS_TAGS: BPS DURATION NUMBER_OF_FRAMES NUMBER_OF_BYTES
  Stream #0:4: Attachment: ttf
      Metadata:
        filename        : AGPMOD.TTF
        mimetype        : application/x-truetype-font
  Stream #0:5: Attachment: ttf
      Metadata:
        filename        : DFPSNGyosho-W5-CP-Spec.ttf
        mimetype        : application/x-truetype-font
  Stream #0:6: Attachment: ttf
      Metadata:
        filename        : Modernist One.ttf
        mimetype        : application/x-truetype-font
  Stream #0:7: Attachment: ttf
      Metadata:
        filename        : 1125177.TTF
        mimetype        : application/x-truetype-font
  Stream #0:8: Attachment: ttf
      Metadata:
        filename        : Roboto-Medium.ttf
        mimetype        : application/x-truetype-font
  Stream #0:9: Attachment: ttf
      Metadata:
        filename        : Roboto-MediumItalic.ttf
        mimetype        : application/x-truetype-font
  Stream #0:10: Attachment: ttf
      Metadata:
        filename        : arial.ttf
        mimetype        : application/x-truetype-font
  Stream #0:11: Attachment: ttf
      Metadata:
        filename        : arialbd.ttf
        mimetype        : application/x-truetype-font
  Stream #0:12: Attachment: ttf
      Metadata:
        filename        : comic.ttf
        mimetype        : application/x-truetype-font
  Stream #0:13: Attachment: ttf
      Metadata:
        filename        : comicbd.ttf
        mimetype        : application/x-truetype-font
  Stream #0:14: Attachment: ttf
      Metadata:
        filename        : times.ttf
        mimetype        : application/x-truetype-font
  Stream #0:15: Attachment: ttf
      Metadata:
        filename        : timesbd.ttf
        mimetype        : application/x-truetype-font
  Stream #0:16: Attachment: ttf
      Metadata:
        filename        : trebuc.ttf
        mimetype        : application/x-truetype-font
  Stream #0:17: Attachment: ttf
      Metadata:
        filename        : trebucbd.ttf
        mimetype        : application/x-truetype-font
  Stream #0:18: Attachment: ttf
      Metadata:
        filename        : verdana.ttf
        mimetype        : application/x-truetype-font
  Stream #0:19: Attachment: ttf
      Metadata:
        filename        : verdanab.ttf
        mimetype        : application/x-truetype-font
  Stream #0:20: Attachment: ttf
      Metadata:
        filename        : CONSOLA.TTF
        mimetype        : application/x-truetype-font
  Stream #0:21: Attachment: ttf
      Metadata:
        filename        : CONSOLAB.TTF
        mimetype        : application/x-truetype-font
Input #1, matroska,webm, from 'F:\Convert\files\Nanatsu_no_Maken_ga_Shihai_suru_[02]_[AniLibria_TV]_[WEBRip_1080p].mkv':
  Metadata:
    encoder         : libebml v1.4.4 + libmatroska v1.7.1
    creation_time   : 2023-07-15T11:47:58.000000Z
  Duration: 00:23:40.12, start: 0.000000, bitrate: 8335 kb/s
  Stream #1:0: Video: h264 (High), yuv420p(tv, bt709, progressive), 1920x1080 [SAR 1:1 DAR 16:9], 23.98 fps, 23.98 tbr, 1k tbn (default)
      Metadata:
        title           : Original
        BPS             : 7971709
        DURATION        : 00:23:40.045000000
        NUMBER_OF_FRAMES: 34047
        NUMBER_OF_BYTES : 1415023222
        _STATISTICS_WRITING_APP: mkvmerge v77.0 ('Elemental') 64-bit
        _STATISTICS_WRITING_DATE_UTC: 2023-07-15 11:47:58
        _STATISTICS_TAGS: BPS DURATION NUMBER_OF_FRAMES NUMBER_OF_BYTES
  Stream #1:1(rus): Audio: aac (LC), 48000 Hz, stereo, fltp (default)
      Metadata:
        title           : AniLibria.TV
        BPS             : 191999
        DURATION        : 00:23:40.117000000
        NUMBER_OF_FRAMES: 66568
        NUMBER_OF_BYTES : 34082731
        _STATISTICS_WRITING_APP: mkvmerge v77.0 ('Elemental') 64-bit
        _STATISTICS_WRITING_DATE_UTC: 2023-07-15 11:47:58
        _STATISTICS_TAGS: BPS DURATION NUMBER_OF_FRAMES NUMBER_OF_BYTES
  Stream #1:2(jpn): Audio: aac (LC), 44100 Hz, stereo, fltp
      Metadata:
        title           : Original
        BPS             : 128000
        DURATION        : 00:23:40.109000000
        NUMBER_OF_FRAMES: 61159
        NUMBER_OF_BYTES : 22721748
        _STATISTICS_WRITING_APP: mkvmerge v77.0 ('Elemental') 64-bit
        _STATISTICS_WRITING_DATE_UTC: 2023-07-15 11:47:58
        _STATISTICS_TAGS: BPS DURATION NUMBER_OF_FRAMES NUMBER_OF_BYTES
  Stream #1:3(rus): Subtitle: ass (ssa) (default)
      Metadata:
        title           : Надписи
        BPS             : 340
        DURATION        : 00:22:14.570000000
        NUMBER_OF_FRAMES: 381
        NUMBER_OF_BYTES : 56799
        _STATISTICS_WRITING_APP: mkvmerge v77.0 ('Elemental') 64-bit
        _STATISTICS_WRITING_DATE_UTC: 2023-07-15 11:47:58
        _STATISTICS_TAGS: BPS DURATION NUMBER_OF_FRAMES NUMBER_OF_BYTES
  Stream #1:4(rus): Subtitle: ass (ssa)
      Metadata:
        title           : Субтитры
        BPS             : 489
        DURATION        : 00:23:37.340000000
        NUMBER_OF_FRAMES: 749
        NUMBER_OF_BYTES : 86800
        _STATISTICS_WRITING_APP: mkvmerge v77.0 ('Elemental') 64-bit
        _STATISTICS_WRITING_DATE_UTC: 2023-07-15 11:47:58
        _STATISTICS_TAGS: BPS DURATION NUMBER_OF_FRAMES NUMBER_OF_BYTES
  Stream #1:5: Attachment: ttf
      Metadata:
        filename        : AGPMOD.TTF
        mimetype        : application/x-truetype-font
  Stream #1:6: Attachment: ttf
      Metadata:
        filename        : DFPSNGyosho-W5-CP-Spec.ttf
        mimetype        : application/x-truetype-font
  Stream #1:7: Attachment: ttf
      Metadata:
        filename        : Modernist One.ttf
        mimetype        : application/x-truetype-font
  Stream #1:8: Attachment: ttf
      Metadata:
        filename        : 1125177.TTF
        mimetype        : application/x-truetype-font
  Stream #1:9: Attachment: ttf
      Metadata:
        filename        : Roboto-Medium.ttf
        mimetype        : application/x-truetype-font
  Stream #1:10: Attachment: ttf
      Metadata:
        filename        : Roboto-MediumItalic.ttf
        mimetype        : application/x-truetype-font
  Stream #1:11: Attachment: ttf
      Metadata:
        filename        : arial.ttf
        mimetype        : application/x-truetype-font
  Stream #1:12: Attachment: ttf
      Metadata:
        filename        : arialbd.ttf
        mimetype        : application/x-truetype-font
  Stream #1:13: Attachment: ttf
      Metadata:
        filename        : comic.ttf
        mimetype        : application/x-truetype-font
  Stream #1:14: Attachment: ttf
      Metadata:
        filename        : comicbd.ttf
        mimetype        : application/x-truetype-font
  Stream #1:15: Attachment: ttf
      Metadata:
        filename        : times.ttf
        mimetype        : application/x-truetype-font
  Stream #1:16: Attachment: ttf
      Metadata:
        filename        : timesbd.ttf
        mimetype        : application/x-truetype-font
  Stream #1:17: Attachment: ttf
      Metadata:
        filename        : trebuc.ttf
        mimetype        : application/x-truetype-font
  Stream #1:18: Attachment: ttf
      Metadata:
        filename        : trebucbd.ttf
        mimetype        : application/x-truetype-font
  Stream #1:19: Attachment: ttf
      Metadata:
        filename        : verdana.ttf
        mimetype        : application/x-truetype-font
  Stream #1:20: Attachment: ttf
      Metadata:
        filename        : verdanab.ttf
        mimetype        : application/x-truetype-font
  Stream #1:21: Attachment: ttf
      Metadata:
        filename        : CONSOLA.TTF
        mimetype        : application/x-truetype-font
  Stream #1:22: Attachment: ttf
      Metadata:
        filename        : CONSOLAB.TTF
        mimetype        : application/x-truetype-font
Stream mapping:
  Stream #0:0 (hevc) -> settb:default
  Stream #1:0 (h264) -> settb:default
  ssim:default -> Stream #0:0 (wrapped_avframe)
  Stream #0:1 -> #0:1 (aac (native) -> pcm_s16le (native))
Output #0, null, to 'pipe:':
  Metadata:
    encoder         : Lavf61.7.100
  Stream #0:0: Video: wrapped_avframe, yuv420p10le(tv, bt709, progressive), 1920x1080 [SAR 1:1 DAR 16:9], q=2-31, 200 kb/s, 23.98 fps, 23.98 tbn
      Metadata:
        encoder         : Lavc61.19.100 wrapped_avframe
  Stream #0:1(rus): Audio: pcm_s16le, 48000 Hz, stereo, s16, 1536 kb/s (default)
      Metadata:
        title           : AniLibria.TV
        _STATISTICS_TAGS: BPS DURATION NUMBER_OF_FRAMES NUMBER_OF_BYTES
        BPS             : 194075
        DURATION        : 00:23:40.117000000
        NUMBER_OF_FRAMES: 66569
        NUMBER_OF_BYTES : 34451214
        _STATISTICS_WRITING_APP: mkvpropedit v94.0 ('Initiate') 64-bit
        _STATISTICS_WRITING_DATE_UTC: 2026-01-05 16:11:10
        encoder         : Lavc61.19.100 pcm_s16le
frame=  176 fps=0.0 q=-0.0 size=N/A time=00:00:07.34 bitrate=N/A speed=13.9x    frame=  448 fps=432 q=-0.0 size=N/A time=00:00:18.68 bitrate=N/A speed=  18x    frame=  737 fps=476 q=-0.0 size=N/A time=00:00:30.73 bitrate=N/A speed=19.9x    frame= 1027 fps=495 q=-0.0 size=N/A time=00:00:42.83 bitrate=N/A speed=20.6x    frame= 1289 fps=495 q=-0.0 size=N/A time=00:00:53.76 bitrate=N/A speed=20.7x    frame= 1560 fps=501 q=-0.0 size=N/A time=00:01:05.06 bitrate=N/A speed=20.9x    frame= 1835 fps=506 q=-0.0 size=N/A time=00:01:16.53 bitrate=N/A speed=21.1x    frame= 2102 fps=506 q=-0.0 size=N/A time=00:01:27.67 bitrate=N/A speed=21.1x    frame= 2289 fps=491 q=-0.0 size=N/A time=00:01:35.47 bitrate=N/A speed=20.5x    frame= 2513 fps=486 q=-0.0 size=N/A time=00:01:44.81 bitrate=N/A speed=20.3x    frame= 2740 fps=481 q=-0.0 size=N/A time=00:01:54.28 bitrate=N/A speed=20.1x    frame= 2945 fps=474 q=-0.0 size=N/A time=00:02:02.83 bitrate=N/A speed=19.8x    frame= 3113 fps=463 q=-0.0 size=N/A time=00:02:09.83 bitrate=N/A speed=19.3x    frame= 3316 fps=458 q=-0.0 size=N/A time=00:02:18.30 bitrate=N/A speed=19.1x    frame= 3510 fps=453 q=-0.0 size=N/A time=00:02:26.39 bitrate=N/A speed=18.9x    frame= 3715 fps=449 q=-0.0 size=N/A time=00:02:34.94 bitrate=N/A speed=18.7x    frame= 3949 fps=449 q=-0.0 size=N/A time=00:02:44.70 bitrate=N/A speed=18.7x    frame= 4164 fps=447 q=-0.0 size=N/A time=00:02:53.67 bitrate=N/A speed=18.6x    frame= 4415 fps=449 q=-0.0 size=N/A time=00:03:04.14 bitrate=N/A speed=18.7x    frame= 4684 fps=453 q=-0.0 size=N/A time=00:03:15.36 bitrate=N/A speed=18.9x    frame= 4918 fps=452 q=-0.0 size=N/A time=00:03:25.12 bitrate=N/A speed=18.9x    frame= 5103 fps=448 q=-0.0 size=N/A time=00:03:32.83 bitrate=N/A speed=18.7x    frame= 5269 fps=442 q=-0.0 size=N/A time=00:03:39.76 bitrate=N/A speed=18.5x    frame= 5528 fps=445 q=-0.0 size=N/A time=00:03:50.56 bitrate=N/A speed=18.6x    frame= 5807 fps=448 q=-0.0 size=N/A time=00:04:02.20 bitrate=N/A speed=18.7x    frame= 6091 fps=453 q=-0.0 size=N/A time=00:04:14.04 bitrate=N/A speed=18.9x    frame= 6364 fps=456 q=-0.0 size=N/A time=00:04:25.43 bitrate=N/A speed=  19x    frame= 6646 fps=458 q=-0.0 size=N/A time=00:04:37.19 bitrate=N/A speed=19.1x    frame= 6934 fps=462 q=-0.0 size=N/A time=00:04:49.20 bitrate=N/A speed=19.2x    frame= 7192 fps=463 q=-0.0 size=N/A time=00:04:59.96 bitrate=N/A speed=19.3x    frame= 7472 fps=466 q=-0.0 size=N/A time=00:05:11.64 bitrate=N/A speed=19.4x    frame= 7759 fps=468 q=-0.0 size=N/A time=00:05:23.61 bitrate=N/A speed=19.5x    frame= 8019 fps=469 q=-0.0 size=N/A time=00:05:34.45 bitrate=N/A speed=19.6x    frame= 8297 fps=472 q=-0.0 size=N/A time=00:05:46.05 bitrate=N/A speed=19.7x    frame= 8588 fps=474 q=-0.0 size=N/A time=00:05:58.19 bitrate=N/A speed=19.8x    frame= 8843 fps=475 q=-0.0 size=N/A time=00:06:08.82 bitrate=N/A speed=19.8x    frame= 9087 fps=475 q=-0.0 size=N/A time=00:06:19.00 bitrate=N/A speed=19.8x    frame= 9334 fps=475 q=-0.0 size=N/A time=00:06:29.30 bitrate=N/A speed=19.8x    frame= 9607 fps=476 q=-0.0 size=N/A time=00:06:40.69 bitrate=N/A speed=19.8x    frame= 9870 fps=477 q=-0.0 size=N/A time=00:06:51.66 bitrate=N/A speed=19.9x    frame=10079 fps=475 q=-0.0 size=N/A time=00:07:00.37 bitrate=N/A speed=19.8x    frame=10298 fps=474 q=-0.0 size=N/A time=00:07:09.51 bitrate=N/A speed=19.8x    frame=10493 fps=471 q=-0.0 size=N/A time=00:07:17.64 bitrate=N/A speed=19.7x    frame=10694 fps=470 q=-0.0 size=N/A time=00:07:26.02 bitrate=N/A speed=19.6x    frame=10891 fps=468 q=-0.0 size=N/A time=00:07:34.24 bitrate=N/A speed=19.5x    frame=11071 fps=465 q=-0.0 size=N/A time=00:07:41.75 bitrate=N/A speed=19.4x    frame=11305 fps=465 q=-0.0 size=N/A time=00:07:51.51 bitrate=N/A speed=19.4x    frame=11473 fps=462 q=-0.0 size=N/A time=00:07:58.51 bitrate=N/A speed=19.3x    frame=11708 fps=461 q=-0.0 size=N/A time=00:08:08.32 bitrate=N/A speed=19.2x    frame=11955 fps=462 q=-0.0 size=N/A time=00:08:18.62 bitrate=N/A speed=19.3x    frame=12214 fps=463 q=-0.0 size=N/A time=00:08:29.42 bitrate=N/A speed=19.3x    frame=12475 fps=463 q=-0.0 size=N/A time=00:08:40.31 bitrate=N/A speed=19.3x    frame=12643 fps=461 q=-0.0 size=N/A time=00:08:47.31 bitrate=N/A speed=19.2x    frame=12861 fps=460 q=-0.0 size=N/A time=00:08:56.41 bitrate=N/A speed=19.2x    frame=13115 fps=461 q=-0.0 size=N/A time=00:09:07.00 bitrate=N/A speed=19.2x    frame=13388 fps=462 q=-0.0 size=N/A time=00:09:18.39 bitrate=N/A speed=19.3x    frame=13668 fps=463 q=-0.0 size=N/A time=00:09:30.06 bitrate=N/A speed=19.3x    frame=13928 fps=464 q=-0.0 size=N/A time=00:09:40.91 bitrate=N/A speed=19.4x    frame=14189 fps=465 q=-0.0 size=N/A time=00:09:51.79 bitrate=N/A speed=19.4x    frame=14449 fps=466 q=-0.0 size=N/A time=00:10:02.64 bitrate=N/A speed=19.4x    frame=14702 fps=466 q=-0.0 size=N/A time=00:10:13.19 bitrate=N/A speed=19.4x    frame=14980 fps=467 q=-0.0 size=N/A time=00:10:24.79 bitrate=N/A speed=19.5x    frame=15276 fps=469 q=-0.0 size=N/A time=00:10:37.13 bitrate=N/A speed=19.5x    frame=15514 fps=469 q=-0.0 size=N/A time=00:10:47.06 bitrate=N/A speed=19.5x    frame=15743 fps=468 q=-0.0 size=N/A time=00:10:56.61 bitrate=N/A speed=19.5x    frame=15994 fps=468 q=-0.0 size=N/A time=00:11:07.08 bitrate=N/A speed=19.5x    frame=16260 fps=469 q=-0.0 size=N/A time=00:11:18.17 bitrate=N/A speed=19.6x    frame=16436 fps=467 q=-0.0 size=N/A time=00:11:25.51 bitrate=N/A speed=19.5x    frame=16684 fps=468 q=-0.0 size=N/A time=00:11:35.86 bitrate=N/A speed=19.5x    frame=16888 fps=466 q=-0.0 size=N/A time=00:11:44.37 bitrate=N/A speed=19.5x    frame=17089 fps=465 q=-0.0 size=N/A time=00:11:52.75 bitrate=N/A speed=19.4x    frame=17300 fps=465 q=-0.0 size=N/A time=00:12:01.55 bitrate=N/A speed=19.4x    frame=17534 fps=464 q=-0.0 size=N/A time=00:12:11.31 bitrate=N/A speed=19.4x    frame=17777 fps=464 q=-0.0 size=N/A time=00:12:21.44 bitrate=N/A speed=19.4x    frame=18002 fps=464 q=-0.0 size=N/A time=00:12:30.83 bitrate=N/A speed=19.4x    frame=18231 fps=464 q=-0.0 size=N/A time=00:12:40.38 bitrate=N/A speed=19.4x    frame=18474 fps=464 q=-0.0 size=N/A time=00:12:50.51 bitrate=N/A speed=19.3x    frame=18708 fps=464 q=-0.0 size=N/A time=00:13:00.27 bitrate=N/A speed=19.3x    frame=18918 fps=463 q=-0.0 size=N/A time=00:13:09.03 bitrate=N/A speed=19.3x    frame=19156 fps=463 q=-0.0 size=N/A time=00:13:18.96 bitrate=N/A speed=19.3x    frame=19430 fps=464 q=-0.0 size=N/A time=00:13:30.39 bitrate=N/A speed=19.4x    frame=19681 fps=464 q=-0.0 size=N/A time=00:13:40.86 bitrate=N/A speed=19.4x    frame=19977 fps=465 q=-0.0 size=N/A time=00:13:53.20 bitrate=N/A speed=19.4x    frame=20240 fps=466 q=-0.0 size=N/A time=00:14:04.17 bitrate=N/A speed=19.4x    frame=20489 fps=466 q=-0.0 size=N/A time=00:14:14.56 bitrate=N/A speed=19.4x    frame=20783 fps=467 q=-0.0 size=N/A time=00:14:26.82 bitrate=N/A speed=19.5x    frame=21034 fps=468 q=-0.0 size=N/A time=00:14:37.29 bitrate=N/A speed=19.5x    frame=21311 fps=469 q=-0.0 size=N/A time=00:14:48.84 bitrate=N/A speed=19.5x    frame=21570 fps=469 q=-0.0 size=N/A time=00:14:59.64 bitrate=N/A speed=19.6x    frame=21814 fps=469 q=-0.0 size=N/A time=00:15:09.82 bitrate=N/A speed=19.6x    frame=22031 fps=468 q=-0.0 size=N/A time=00:15:18.87 bitrate=N/A speed=19.5x    frame=22285 fps=469 q=-0.0 size=N/A time=00:15:29.47 bitrate=N/A speed=19.5x    frame=22604 fps=470 q=-0.0 size=N/A time=00:15:42.77 bitrate=N/A speed=19.6x    frame=22878 fps=471 q=-0.0 size=N/A time=00:15:54.20 bitrate=N/A speed=19.6x    frame=23150 fps=472 q=-0.0 size=N/A time=00:16:05.54 bitrate=N/A speed=19.7x    frame=23428 fps=472 q=-0.0 size=N/A time=00:16:17.14 bitrate=N/A speed=19.7x    frame=23698 fps=473 q=-0.0 size=N/A time=00:16:28.40 bitrate=N/A speed=19.7x    frame=24009 fps=474 q=-0.0 size=N/A time=00:16:41.37 bitrate=N/A speed=19.8x    frame=24315 fps=475 q=-0.0 size=N/A time=00:16:54.13 bitrate=N/A speed=19.8x    frame=24591 fps=476 q=-0.0 size=N/A time=00:17:05.64 bitrate=N/A speed=19.8x    frame=24841 fps=476 q=-0.0 size=N/A time=00:17:16.07 bitrate=N/A speed=19.9x    frame=25100 fps=476 q=-0.0 size=N/A time=00:17:26.87 bitrate=N/A speed=19.9x    frame=25381 fps=477 q=-0.0 size=N/A time=00:17:38.59 bitrate=N/A speed=19.9x    frame=25652 fps=477 q=-0.0 size=N/A time=00:17:49.90 bitrate=N/A speed=19.9x    frame=25878 fps=477 q=-0.0 size=N/A time=00:17:59.32 bitrate=N/A speed=19.9x    frame=26126 fps=477 q=-0.0 size=N/A time=00:18:09.67 bitrate=N/A speed=19.9x    frame=26399 fps=477 q=-0.0 size=N/A time=00:18:21.05 bitrate=N/A speed=19.9x    frame=26665 fps=478 q=-0.0 size=N/A time=00:18:32.15 bitrate=N/A speed=19.9x    frame=26923 fps=478 q=-0.0 size=N/A time=00:18:42.91 bitrate=N/A speed=19.9x    frame=27178 fps=478 q=-0.0 size=N/A time=00:18:53.54 bitrate=N/A speed=19.9x    frame=27473 fps=479 q=-0.0 size=N/A time=00:19:05.85 bitrate=N/A speed=  20x    frame=27747 fps=480 q=-0.0 size=N/A time=00:19:17.28 bitrate=N/A speed=  20x    frame=28011 fps=480 q=-0.0 size=N/A time=00:19:28.29 bitrate=N/A speed=  20x    frame=28308 fps=481 q=-0.0 size=N/A time=00:19:40.67 bitrate=N/A speed=  20x    frame=28594 fps=481 q=-0.0 size=N/A time=00:19:52.60 bitrate=N/A speed=20.1x    frame=28862 fps=482 q=-0.0 size=N/A time=00:20:03.78 bitrate=N/A speed=20.1x    frame=29134 fps=482 q=-0.0 size=N/A time=00:20:15.13 bitrate=N/A speed=20.1x    frame=29402 fps=482 q=-0.0 size=N/A time=00:20:26.30 bitrate=N/A speed=20.1x    frame=29688 fps=483 q=-0.0 size=N/A time=00:20:38.23 bitrate=N/A speed=20.1x    frame=29970 fps=483 q=-0.0 size=N/A time=00:20:49.99 bitrate=N/A speed=20.2x    frame=30219 fps=484 q=-0.0 size=N/A time=00:21:00.38 bitrate=N/A speed=20.2x    frame=30493 fps=484 q=-0.0 size=N/A time=00:21:11.81 bitrate=N/A speed=20.2x    frame=30741 fps=484 q=-0.0 size=N/A time=00:21:22.15 bitrate=N/A speed=20.2x    frame=31005 fps=484 q=-0.0 size=N/A time=00:21:33.16 bitrate=N/A speed=20.2x    frame=31288 fps=485 q=-0.0 size=N/A time=00:21:44.97 bitrate=N/A speed=20.2x    frame=31545 fps=485 q=-0.0 size=N/A time=00:21:55.68 bitrate=N/A speed=20.2x    frame=31804 fps=485 q=-0.0 size=N/A time=00:22:06.49 bitrate=N/A speed=20.2x    frame=32088 fps=485 q=-0.0 size=N/A time=00:22:18.33 bitrate=N/A speed=20.2x    frame=32361 fps=486 q=-0.0 size=N/A time=00:22:29.72 bitrate=N/A speed=20.3x    frame=32639 fps=486 q=-0.0 size=N/A time=00:22:41.31 bitrate=N/A speed=20.3x    frame=32909 fps=486 q=-0.0 size=N/A time=00:22:52.57 bitrate=N/A speed=20.3x    frame=33185 fps=487 q=-0.0 size=N/A time=00:23:04.09 bitrate=N/A speed=20.3x    frame=33446 fps=487 q=-0.0 size=N/A time=00:23:14.97 bitrate=N/A speed=20.3x    frame=33709 fps=487 q=-0.0 size=N/A time=00:23:25.94 bitrate=N/A speed=20.3x    frame=33983 fps=487 q=-0.0 size=N/A time=00:23:37.37 bitrate=N/A speed=20.3x    [Parsed_ssim_10 @ 0000018fbfff4c80] SSIM Y:0.994014 (22.228528) U:0.990513 (20.228753) V:0.990359 (20.158829) All:0.992821 (21.439524)
[out#0/null @ 0000018fa7989b40] video:14630KiB audio:266276KiB subtitle:0KiB other streams:0KiB global headers:0KiB muxing overhead: unknown
frame=34047 fps=487 q=-0.0 Lsize=N/A time=00:23:40.04 bitrate=N/A speed=20.3x    
